<?xml version="1.0" encoding="UTF-8" standalone="no"?>
<!DOCTYPE svg PUBLIC "-//W3C//DTD SVG 1.1//EN" "http://www.w3.org/Graphics/SVG/1.1/DTD/svg11.dtd">
<svg width="100%" height="100%" viewBox="0 0 48 48" version="1.1" xmlns="http://www.w3.org/2000/svg" xmlns:xlink="http://www.w3.org/1999/xlink" xml:space="preserve" xmlns:serif="http://www.serif.com/" style="fill-rule:evenodd;clip-rule:evenodd;stroke-linecap:round;stroke-linejoin:round;stroke-miterlimit:1.5;">
    <g transform="matrix(1,0,0,1,-0.635324,1.80432)">
        <g transform="matrix(-1.01053,-1.249e-16,1.38778e-16,-0.981786,49.3195,44.3514)">
            <path d="M23.285,2.196C27.814,12.381 4.635,10.655 4.635,22.567C4.635,33.81 13.504,42.938 24.427,42.938C35.35,42.938 44.219,33.81 44.219,22.567C44.219,10.655 33.752,2.196 23.285,2.196Z" style="fill:none;stroke:rgb(37,108,225);stroke-width:2.09px;"/>
        </g>
        <g transform="matrix(1.26087,0,0,1.26087,-4.40462,2.70246)">
            <circle cx="12.442" cy="16.163" r="2.806" style="fill:none;stroke:rgb(37,108,225);stroke-width:1.65px;"/>
        </g>
        <g transform="matrix(0.896739,0,0,0.896739,4.47158,-2.74133)">
            <circle cx="12.442" cy="16.163" r="2.806" style="fill:none;stroke:rgb(37,108,225);stroke-width:2.32px;"/>
        </g>
        <g transform="matrix(1.17935,0,0,1.17935,11.3848,-9.99264)">
            <circle cx="12.442" cy="16.163" r="2.806" style="fill:none;stroke:rgb(37,108,225);stroke-width:1.77px;"/>
        </g>
        <g transform="matrix(0.619565,0,0,0.619565,28.1845,3.27856)">
            <circle cx="12.442" cy="16.163" r="2.806" style="fill:none;stroke:rgb(37,108,225);stroke-width:3.36px;"/>
        </g>
    </g>
</svg>
