<?xml version="1.0" encoding="UTF-8" standalone="no"?>
<!DOCTYPE svg PUBLIC "-//W3C//DTD SVG 1.1//EN" "http://www.w3.org/Graphics/SVG/1.1/DTD/svg11.dtd">
<svg width="100%" height="100%" viewBox="0 0 32 32" version="1.1" xmlns="http://www.w3.org/2000/svg" xmlns:xlink="http://www.w3.org/1999/xlink" xml:space="preserve" xmlns:serif="http://www.serif.com/" style="fill-rule:evenodd;clip-rule:evenodd;stroke-linecap:round;stroke-linejoin:round;stroke-miterlimit:1.5;">
    <g transform="matrix(0.718044,0.718044,-0.718044,0.718044,14.9162,-5.89364)">
        <g transform="matrix(1.0107,0,0,1,0.239726,-3.90971)">
            <path d="M18.562,5.81C18.562,4.982 17.897,4.31 17.078,4.31L14.109,4.31C13.29,4.31 12.625,4.982 12.625,5.81L12.625,24.523C12.625,25.351 13.29,26.023 14.109,26.023L17.078,26.023C17.897,26.023 18.562,25.351 18.562,24.523L18.562,5.81Z" style="fill:none;stroke:rgb(0,123,255);stroke-width:0.82px;"/>
        </g>
        <g transform="matrix(-1,1.22465e-16,-1.22465e-16,-1,31.6036,55.9116)">
            <path d="M15.107,26.203C15.201,26.015 15.393,25.896 15.604,25.896C15.814,25.896 16.006,26.015 16.1,26.203C16.711,27.425 17.734,29.47 18.27,30.542C18.345,30.693 18.337,30.873 18.248,31.017C18.16,31.16 18.003,31.248 17.834,31.248C16.676,31.248 14.531,31.248 13.373,31.248C13.204,31.248 13.048,31.16 12.959,31.017C12.87,30.873 12.862,30.693 12.937,30.542C13.474,29.47 14.496,27.425 15.107,26.203Z" style="fill:none;stroke:rgb(0,123,255);stroke-width:0.82px;"/>
        </g>
    </g>
</svg>
